<svg xmlns="http://www.w3.org/2000/svg" xmlns:lucid="lucid" xmlns:xlink="http://www.w3.org/1999/xlink" viewBox="16 270 1210 1040">
  <g lucid:page-tab-id="~ChftzRAVLEv" transform="translate(-260.23550360572165 21)">
    <path fill="#9391ff" d="M746 683a8 8 0 0 1 8-8h252a8 8 0 0 1 8 8v174a8 8 0 0 1-8 8H754a8 8 0 0 1-8-8z"/>
    <use xlink:href="#a" transform="matrix(1,0,0,1,750.4013183922672,679.6375950241915) translate(28.8086419753087 99.51944444444445)"/>
    <path fill="#e3fae3" d="M1048 419c0 87-75 158-168 158s-168-71-168-158 75-159 168-159 168 71 168 159z"/>
    <use xlink:href="#b" transform="matrix(1,0,0,1,716.3401973288576,264.8) translate(110.26543209876546 161.58194444444442)"/>
    <path fill="#282c33" stroke="#282c33" stroke-width=".1" d="M880 658h-1v-13h1zm0-51h-1v-29h1z"/>
    <path fill="#282c33" d="m880 673-5-14h9z"/>
    <path fill="#282c33" stroke="#282c33" stroke-width=".1" d="m880 675-6-17h11zm-4-16 4 13 4-13z"/>
    <path fill="#282c33" d="M880 577v1h-1v-1z"/>
    <path fill="#282c33" stroke="#282c33" stroke-width=".1" d="M880 577v1h-1v-1zm-1 1h1v-1h-1z"/>
    <use xlink:href="#c" transform="matrix(1,0,0,1,778.6965951597103,607.3554321301991) translate(0 24.888888888888886)"/>
    <use xlink:href="#d" transform="matrix(1,0,0,1,778.6965951597103,607.3554321301991) translate(138.358024691358 24.888888888888886)"/>
    <path fill="#e3fae3" d="M1480 470c0 88-76 159-168 159-93 0-169-71-169-159s76-159 169-159c92 0 168 71 168 159z"/>
    <use xlink:href="#e" transform="matrix(1,0,0,1,1148.115898263437,316.2581893572927) translate(22.314814814814877 161.58194444444442)"/>
    <path fill="#282c33" stroke="#282c33" stroke-width=".1" d="m1096 710-7 3-7 2-7 3-7 2-8 2-8 1-8 1-10 1-4 1v-1l4-1 9-1 9-1 8-1 8-2 7-2 7-3 7-2 7-3 1-1h3zm116-111-18 26-14 16-10 13-10 10-7 7h-1l8-8 9-10 11-12 13-17 18-26z"/>
    <path fill="#282c33" d="m1030 730-14-4 14-6z"/>
    <path fill="#282c33" stroke="#282c33" stroke-width=".1" d="m1031 730-17-4 16-6zm-14-5 12 4v-8z"/>
    <path fill="#282c33" d="m1213 598-1 1v-1z"/>
    <path fill="#282c33" stroke="#282c33" stroke-width=".1" d="m1213 598-1 1-1-1h1zm-1 0v1l1-1h-1z"/>
    <use xlink:href="#f" transform="matrix(1,0,0,1,1029.093499633426,670.9256582188596) translate(0 24.888888888888886)"/>
    <use xlink:href="#g" transform="matrix(1,0,0,1,1029.093499633426,670.9256582188596) translate(113.29629629629628 24.888888888888886)"/>
    <path fill="#e3fae3" d="M617 470c0 88-76 159-169 159-92 0-168-71-168-159s76-159 168-159c93 0 169 71 169 159z"/>
    <use xlink:href="#h" transform="matrix(1,0,0,1,285.03550360572166,316.2581893572927) translate(106.26543209876546 137.51944444444445)"/>
    <use xlink:href="#i" transform="matrix(1,0,0,1,285.03550360572166,316.2581893572927) translate(62.80864197530869 180.1861111111111)"/>
    <path fill="#282c33" stroke="#282c33" stroke-width=".1" d="m697 724 32 1v1l-32-1h-1v-1zM506 622l3 7 2 6 3 6 3 5 3 5 3 5 4 4 3 4 3 5 4 3 4 4 4 4 4 3 5 4 5 3 4 3h-2l-3-2-5-3-4-4-5-3-4-4-4-4-3-4-4-4-3-4-4-5-3-4-3-6-3-5-2-6-3-6-3-6-1-3h1z"/>
    <path fill="#282c33" d="m744 726-14 4v-9z"/>
    <path fill="#282c33" stroke="#282c33" stroke-width=".1" d="m746 726-17 5v-11zm-16 3 12-3-12-5z"/>
    <path fill="#282c33" d="M505 620h-1l1-1z"/>
    <path fill="#282c33" stroke="#282c33" stroke-width=".1" d="M505 620h-1l1-1zm-1 0h1v-1z"/>
    <use xlink:href="#j" transform="matrix(1,0,0,1,513.4479801330266,692.9875093135962) translate(0 24.888888888888886)"/>
    <path fill="#dedfff" d="M622 1028c0 87-75 158-168 158s-169-71-169-158 76-159 169-159 168 71 168 159z"/>
    <use xlink:href="#k" transform="matrix(1,0,0,1,290.26914846553854,873.8393918451758) translate(114.1172839506173 161.58194444444442)"/>
    <path fill="#dedfff" d="M1474 1028c0 87-75 158-168 158s-168-71-168-158 75-159 168-159 168 71 168 159z"/>
    <use xlink:href="#l" transform="matrix(1,0,0,1,1142.4112461921768,873.8393918451753) translate(43.351851851851904 161.58194444444442)"/>
    <use xlink:href="#m" transform="matrix(1,0,0,1,1142.4112461921768,873.8393918451753) translate(157.62345679012347 161.58194444444442)"/>
    <path fill="#dedfff" d="M1048 1121c0 88-75 159-168 159s-168-71-168-159 75-158 168-158 168 71 168 158z"/>
    <use xlink:href="#n" transform="matrix(1,0,0,1,716.3401973288576,967.591983413971) translate(33.327160493827236 161.58194444444442)"/>
    <use xlink:href="#m" transform="matrix(1,0,0,1,716.3401973288576,967.591983413971) translate(167.64814814814815 161.58194444444442)"/>
    <path fill="none" stroke="#282c33" stroke-linejoin="round" d="M880 866v80"/>
    <path fill="#282c33" stroke="#282c33" stroke-width=".1" d="M880 866h-1v-1h1z"/>
    <path fill="#282c33" stroke="#282c33" d="m880 961-5-14h9z"/>
    <path fill="none" stroke="#282c33" stroke-linejoin="round" d="m745 814-9 1h-8l-8 1-7 1-7 1-7 2-7 2-6 2-6 2-6 3-6 2-6 4-6 3-7 4-7 5-7 6-8 7-11 9-13 13-20 21"/>
    <path fill="#282c33" stroke="#282c33" stroke-width=".1" d="M746 815h-1v-1h1z"/>
    <path fill="#282c33" stroke="#282c33" d="m573 914 7-14 6 7z"/>
    <path fill="none" stroke="#282c33" stroke-linejoin="round" d="M1014 802h15l13 1 11 1 11 2 9 1 9 2 8 3 8 2 7 3 8 3 7 3 6 4 7 4 7 4 7 5 6 5 7 6 7 6 8 7 8 9 8 10 4 5"/>
    <path fill="#282c33" stroke="#282c33" stroke-width=".1" d="M1014 801v1-1z"/>
    <path fill="#282c33" stroke="#282c33" d="m1204 899-12-8 7-6z"/>
    <path fill="#fafafa" d="M1837 12a12 12 0 0 1 12-12h456a12 12 0 0 1 12 12v756a12 12 0 0 1-12 12h-456a12 12 0 0 1-12-12z" filter="url(#o)"/>
    <path fill="none" d="M1837 11h480v65h-480z"/>
    <use xlink:href="#p" transform="matrix(1,0,0,1,1841.5078441065616,16.167486025777166) translate(44.85185185185182 31.645833333333336)"/>
    <use xlink:href="#q" transform="matrix(1,0,0,1,1841.5078441065616,16.167486025777166) translate(198.7037037037037 31.645833333333336)"/>
    <use xlink:href="#r" transform="matrix(1,0,0,1,1841.5078441065616,16.167486025777166) translate(238.77777777777777 31.645833333333336)"/>
    <use xlink:href="#s" transform="matrix(1,0,0,1,1841.5078441065616,16.167486025777166) translate(308.7037037037037 31.645833333333336)"/>
    <path fill="none" d="M1877 76h400v684h-400z"/>
    <use xlink:href="#t" transform="matrix(1,0,0,1,1876.5078441065616,75.84102231658156) translate(0 17.77777777777778)"/>
    <use xlink:href="#u" transform="matrix(1,0,0,1,1876.5078441065616,75.84102231658156) translate(145.2469135802469 17.77777777777778)"/>
    <use xlink:href="#v" transform="matrix(1,0,0,1,1876.5078441065616,75.84102231658156) translate(205.49382716049382 17.77777777777778)"/>
    <use xlink:href="#w" transform="matrix(1,0,0,1,1876.5078441065616,75.84102231658156) translate(0 44.44444444444444)"/>
    <use xlink:href="#x" transform="matrix(1,0,0,1,1876.5078441065616,75.84102231658156) translate(124.62962962962963 44.44444444444444)"/>
    <use xlink:href="#y" transform="matrix(1,0,0,1,1876.5078441065616,75.84102231658156) translate(18.333333333333332 71.11111111111111)"/>
    <use xlink:href="#z" transform="matrix(1,0,0,1,1876.5078441065616,75.84102231658156) translate(44.44444444444444 71.11111111111111)"/>
    <use xlink:href="#z" transform="matrix(1,0,0,1,1876.5078441065616,75.84102231658156) translate(50.617283950617285 71.11111111111111)"/>
    <use xlink:href="#A" transform="matrix(1,0,0,1,1876.5078441065616,75.84102231658156) translate(162.22222222222223 71.11111111111111)"/>
    <use xlink:href="#B" transform="matrix(1,0,0,1,1876.5078441065616,75.84102231658156) translate(312.96296296296293 71.11111111111111)"/>
    <use xlink:href="#C" transform="matrix(1,0,0,1,1876.5078441065616,75.84102231658156) translate(44.44444444444444 97.77777777777777)"/>
    <use xlink:href="#y" transform="matrix(1,0,0,1,1876.5078441065616,75.84102231658156) translate(18.333333333333332 124.44444444444446)"/>
    <use xlink:href="#D" transform="matrix(1,0,0,1,1876.5078441065616,75.84102231658156) translate(44.44444444444444 124.44444444444446)"/>
    <use xlink:href="#E" transform="matrix(1,0,0,1,1876.5078441065616,75.84102231658156) translate(152.59259259259258 124.44444444444446)"/>
    <use xlink:href="#F" transform="matrix(1,0,0,1,1876.5078441065616,75.84102231658156) translate(44.44444444444444 151.11111111111111)"/>
    <use xlink:href="#G" transform="matrix(1,0,0,1,1876.5078441065616,75.84102231658156) translate(146.9753086419753 151.11111111111111)"/>
    <use xlink:href="#y" transform="matrix(1,0,0,1,1876.5078441065616,75.84102231658156) translate(18.333333333333332 177.77777777777777)"/>
    <use xlink:href="#z" transform="matrix(1,0,0,1,1876.5078441065616,75.84102231658156) translate(44.44444444444444 177.77777777777777)"/>
    <use xlink:href="#H" transform="matrix(1,0,0,1,1876.5078441065616,75.84102231658156) translate(50.617283950617285 177.77777777777777)"/>
    <use xlink:href="#I" transform="matrix(1,0,0,1,1876.5078441065616,75.84102231658156) translate(184.1358024691358 177.77777777777777)"/>
    <use xlink:href="#J" transform="matrix(1,0,0,1,1876.5078441065616,75.84102231658156) translate(246.9753086419753 177.77777777777777)"/>
    <use xlink:href="#K" transform="matrix(1,0,0,1,1876.5078441065616,75.84102231658156) translate(318.7654320987654 177.77777777777777)"/>
    <use xlink:href="#L" transform="matrix(1,0,0,1,1876.5078441065616,75.84102231658156) translate(44.44444444444444 204.44444444444443)"/>
    <use xlink:href="#M" transform="matrix(1,0,0,1,1876.5078441065616,75.84102231658156) translate(62.96296296296296 204.44444444444443)"/>
    <use xlink:href="#N" transform="matrix(1,0,0,1,1876.5078441065616,75.84102231658156) translate(153.33333333333331 204.44444444444443)"/>
    <use xlink:href="#O" transform="matrix(1,0,0,1,1876.5078441065616,75.84102231658156) translate(247.59259259259255 204.44444444444443)"/>
    <use xlink:href="#P" transform="matrix(1,0,0,1,1876.5078441065616,75.84102231658156) translate(0 231.1111111111111)"/>
    <use xlink:href="#Q" transform="matrix(1,0,0,1,1876.5078441065616,75.84102231658156) translate(0 257.77777777777777)"/>
    <use xlink:href="#P" transform="matrix(1,0,0,1,1876.5078441065616,75.84102231658156) translate(42.03703703703704 257.77777777777777)"/>
    <use xlink:href="#R" transform="matrix(1,0,0,1,1876.5078441065616,75.84102231658156) translate(169.25925925925927 257.77777777777777)"/>
    <use xlink:href="#S" transform="matrix(1,0,0,1,1876.5078441065616,75.84102231658156) translate(0 284.4444444444444)"/>
    <use xlink:href="#T" transform="matrix(1,0,0,1,1876.5078441065616,75.84102231658156) translate(43.2 284.4444444444444)"/>
    <use xlink:href="#U" transform="matrix(1,0,0,1,1876.5078441065616,75.84102231658156) translate(151.28641975308642 284.4444444444444)"/>
    <use xlink:href="#V" transform="matrix(1,0,0,1,1876.5078441065616,75.84102231658156) translate(182.02716049382715 284.4444444444444)"/>
    <use xlink:href="#W" transform="matrix(1,0,0,1,1876.5078441065616,75.84102231658156) translate(257.1506172839506 284.4444444444444)"/>
    <use xlink:href="#X" transform="matrix(1,0,0,1,1876.5078441065616,75.84102231658156) translate(338.94074074074075 284.4444444444444)"/>
    <use xlink:href="#Y" transform="matrix(1,0,0,1,1876.5078441065616,75.84102231658156) translate(43.2 311.1111111111111)"/>
    <use xlink:href="#Z" transform="matrix(1,0,0,1,1876.5078441065616,75.84102231658156) translate(139.43456790123457 311.1111111111111)"/>
    <use xlink:href="#aa" transform="matrix(1,0,0,1,1876.5078441065616,75.84102231658156) translate(288.7555555555556 311.1111111111111)"/>
    <use xlink:href="#ab" transform="matrix(1,0,0,1,1876.5078441065616,75.84102231658156) translate(43.2 337.77777777777777)"/>
    <use xlink:href="#ac" transform="matrix(1,0,0,1,1876.5078441065616,75.84102231658156) translate(134.18765432098763 337.77777777777777)"/>
    <use xlink:href="#ad" transform="matrix(1,0,0,1,1876.5078441065616,75.84102231658156) translate(244.49629629629626 337.77777777777777)"/>
    <use xlink:href="#ae" transform="matrix(1,0,0,1,1876.5078441065616,75.84102231658156) translate(262.2123456790123 337.77777777777777)"/>
    <use xlink:href="#af" transform="matrix(1,0,0,1,1876.5078441065616,75.84102231658156) translate(0 364.44444444444446)"/>
    <use xlink:href="#ag" transform="matrix(1,0,0,1,1876.5078441065616,75.84102231658156) translate(43.2 364.44444444444446)"/>
    <use xlink:href="#U" transform="matrix(1,0,0,1,1876.5078441065616,75.84102231658156) translate(130.05185185185184 364.44444444444446)"/>
    <use xlink:href="#ah" transform="matrix(1,0,0,1,1876.5078441065616,75.84102231658156) translate(160.79259259259257 364.44444444444446)"/>
    <use xlink:href="#ai" transform="matrix(1,0,0,1,1876.5078441065616,75.84102231658156) translate(244.1259259259259 364.44444444444446)"/>
    <use xlink:href="#aj" transform="matrix(1,0,0,1,1876.5078441065616,75.84102231658156) translate(43.2 391.11111111111114)"/>
    <use xlink:href="#L" transform="matrix(1,0,0,1,1876.5078441065616,75.84102231658156) translate(176.78024691358024 391.11111111111114)"/>
    <use xlink:href="#ak" transform="matrix(1,0,0,1,1876.5078441065616,75.84102231658156) translate(195.29876543209878 391.11111111111114)"/>
    <use xlink:href="#al" transform="matrix(1,0,0,1,1876.5078441065616,75.84102231658156) translate(0 417.7777777777778)"/>
    <use xlink:href="#am" transform="matrix(1,0,0,1,1876.5078441065616,75.84102231658156) translate(43.2 417.7777777777778)"/>
    <use xlink:href="#an" transform="matrix(1,0,0,1,1876.5078441065616,75.84102231658156) translate(123.63209876543209 417.7777777777778)"/>
    <use xlink:href="#ao" transform="matrix(1,0,0,1,1876.5078441065616,75.84102231658156) translate(233.2 417.7777777777778)"/>
    <use xlink:href="#ap" transform="matrix(1,0,0,1,1876.5078441065616,75.84102231658156) translate(43.2 444.4444444444445)"/>
    <use xlink:href="#aq" transform="matrix(1,0,0,1,1876.5078441065616,75.84102231658156) translate(152.45925925925926 444.4444444444445)"/>
    <use xlink:href="#ar" transform="matrix(1,0,0,1,1876.5078441065616,75.84102231658156) translate(228.32345679012343 444.4444444444445)"/>
    <use xlink:href="#W" transform="matrix(1,0,0,1,1876.5078441065616,75.84102231658156) translate(259.0641975308642 444.4444444444445)"/>
    <use xlink:href="#X" transform="matrix(1,0,0,1,1876.5078441065616,75.84102231658156) translate(340.8543209876543 444.4444444444445)"/>
    <use xlink:href="#as" transform="matrix(1,0,0,1,1876.5078441065616,75.84102231658156) translate(43.2 471.1111111111112)"/>
    <use xlink:href="#ar" transform="matrix(1,0,0,1,1876.5078441065616,75.84102231658156) translate(147.52098765432098 471.1111111111112)"/>
    <use xlink:href="#V" transform="matrix(1,0,0,1,1876.5078441065616,75.84102231658156) translate(178.2617283950617 471.1111111111112)"/>
    <use xlink:href="#at" transform="matrix(1,0,0,1,1876.5078441065616,75.84102231658156) translate(253.38518518518515 471.1111111111112)"/>
    <use xlink:href="#au" transform="matrix(1,0,0,1,1876.5078441065616,75.84102231658156) translate(322.15061728395057 471.1111111111112)"/>
    <use xlink:href="#av" transform="matrix(1,0,0,1,1876.5078441065616,75.84102231658156) translate(43.2 497.7777777777779)"/>
    <use xlink:href="#aw" transform="matrix(1,0,0,1,1876.5078441065616,75.84102231658156) translate(139.31111111111113 497.7777777777779)"/>
    <use xlink:href="#ax" transform="matrix(1,0,0,1,1876.5078441065616,75.84102231658156) translate(251.34814814814814 497.7777777777779)"/>
    <use xlink:href="#ay" transform="matrix(1,0,0,1,1876.5078441065616,75.84102231658156) translate(0 524.4444444444446)"/>
    <use xlink:href="#am" transform="matrix(1,0,0,1,1876.5078441065616,75.84102231658156) translate(43.2 524.4444444444446)"/>
    <use xlink:href="#az" transform="matrix(1,0,0,1,1876.5078441065616,75.84102231658156) translate(123.63209876543209 524.4444444444446)"/>
    <use xlink:href="#aA" transform="matrix(1,0,0,1,1876.5078441065616,75.84102231658156) translate(234.43456790123454 524.4444444444446)"/>
    <use xlink:href="#aB" transform="matrix(1,0,0,1,1876.5078441065616,75.84102231658156) translate(329.8049382716049 524.4444444444446)"/>
    <use xlink:href="#ar" transform="matrix(1,0,0,1,1876.5078441065616,75.84102231658156) translate(43.2 551.1111111111113)"/>
    <use xlink:href="#aC" transform="matrix(1,0,0,1,1876.5078441065616,75.84102231658156) translate(73.94074074074074 551.1111111111113)"/>
    <use xlink:href="#aD" transform="matrix(1,0,0,1,1876.5078441065616,75.84102231658156) translate(126.96543209876543 551.1111111111113)"/>
    <use xlink:href="#as" transform="matrix(1,0,0,1,1876.5078441065616,75.84102231658156) translate(268.87901234567903 551.1111111111113)"/>
    <use xlink:href="#aE" transform="matrix(1,0,0,1,1876.5078441065616,75.84102231658156) translate(373.2 551.1111111111113)"/>
    <use xlink:href="#aF" transform="matrix(1,0,0,1,1876.5078441065616,75.84102231658156) translate(43.2 577.7777777777779)"/>
    <use xlink:href="#aG" transform="matrix(1,0,0,1,1876.5078441065616,75.84102231658156) translate(129.68148148148146 577.7777777777779)"/>
    <use xlink:href="#aH" transform="matrix(1,0,0,1,1876.5078441065616,75.84102231658156) translate(148.2 577.7777777777779)"/>
    <use xlink:href="#aI" transform="matrix(1,0,0,1,1876.5078441065616,75.84102231658156) translate(222.52098765432095 577.7777777777779)"/>
    <use xlink:href="#aJ" transform="matrix(1,0,0,1,1876.5078441065616,75.84102231658156) translate(284.1259259259259 577.7777777777779)"/>
    <use xlink:href="#aK" transform="matrix(1,0,0,1,1876.5078441065616,75.84102231658156) translate(43.2 604.4444444444446)"/>
    <use xlink:href="#aL" transform="matrix(1,0,0,1,1876.5078441065616,75.84102231658156) translate(167.95308641975305 604.4444444444446)"/>
    <use xlink:href="#aM" transform="matrix(1,0,0,1,1876.5078441065616,75.84102231658156) translate(180.29876543209872 604.4444444444446)"/>
    <use xlink:href="#aN" transform="matrix(1,0,0,1,1876.5078441065616,75.84102231658156) translate(256.5333333333333 604.4444444444446)"/>
    <use xlink:href="#X" transform="matrix(1,0,0,1,1876.5078441065616,75.84102231658156) translate(362.58271604938267 604.4444444444446)"/>
    <use xlink:href="#aM" transform="matrix(1,0,0,1,1876.5078441065616,75.84102231658156) translate(43.2 631.1111111111112)"/>
    <use xlink:href="#aO" transform="matrix(1,0,0,1,1876.5078441065616,75.84102231658156) translate(119.43456790123457 631.1111111111112)"/>
    <use xlink:href="#ar" transform="matrix(1,0,0,1,1876.5078441065616,75.84102231658156) translate(224.43456790123454 631.1111111111112)"/>
    <use xlink:href="#aP" transform="matrix(1,0,0,1,1876.5078441065616,75.84102231658156) translate(255.17530864197528 631.1111111111112)"/>
    <use xlink:href="#aQ" transform="matrix(1,0,0,1,1876.5078441065616,75.84102231658156) translate(43.2 657.7777777777778)"/>
    <use xlink:href="#aR" transform="matrix(1,0,0,1,1876.5078441065616,75.84102231658156) translate(180.3604938271605 657.7777777777778)"/>
    <use xlink:href="#aS" transform="matrix(1,0,0,1,1876.5078441065616,75.84102231658156) translate(255.29876543209878 657.7777777777778)"/>
    <use xlink:href="#aT" transform="matrix(1,0,0,1,1876.5078441065616,75.84102231658156) translate(0 684.4444444444445)"/>
    <path fill="#282c33" d="m2023 674 4 4h2l7-8-6-4h-2l-6 6 1-1h12l-6 7h-2l-5-4zm16-4-9 10h-3l-7-5v-3l7-8-1-1v-2h2l11 9zm3 7c0 1-1 2-3 2l-2-2c0-2 2-2 2-5 3 2 3 4 3 5z"/>
    <path fill="#fff" stroke="#c92d39" stroke-width="2" d="M2121 568c0 2-2 4-5 4s-5-2-5-4c0-3 3-5 5-5s5 2 5 5z"/>
    <path fill="#282c33" d="M2135 655v1h-4v-4h1v-9h-1v-3h4v1h10v-1h4v3h-1v9h1v4h-4v-1h-10zm-1-3h1v1h10v-1h1v-9h-1v-1h-10v1h-1v9zm-49 55h10v1h-11l1-1zm9-10-2 1-2-2 1-2h1l2 2v1zm-6 0 3 2-9 9h-3v-3l9-8z"/>
    <defs>
      <path id="aU" fill="#fff" d="M24-231v-30h32v30H24zM24 0v-190h32V0H24"/>
      <path id="aV" fill="#fff" d="M115-194c55 1 70 41 70 98S169 2 115 4C84 4 66-9 55-30l1 105H24l-1-265h31l2 30c10-21 28-34 59-34zm-8 174c40 0 45-34 45-75s-6-73-45-74c-42 0-51 32-51 76 0 43 10 73 51 73"/>
      <path id="aT" fill="#fff" d="M141-36C126-15 110 5 73 4 37 3 15-17 15-53c-1-64 63-63 125-63 3-35-9-54-41-54-24 1-41 7-42 31l-33-3c5-37 33-52 76-52 45 0 72 20 72 64v82c-1 20 7 32 28 27v20c-31 9-61-2-59-35zM48-53c0 20 12 33 32 33 41-3 63-29 60-74-43 2-92-5-92 41"/>
      <path id="aW" fill="#fff" d="M85-194c31 0 48 13 60 33l-1-100h32l1 261h-30c-2-10 0-23-3-31C134-8 116 4 85 4 32 4 16-35 15-94c0-66 23-100 70-100zm9 24c-40 0-46 34-46 75 0 40 6 74 45 74 42 0 51-32 51-76 0-42-9-74-50-73"/>
      <path id="aX" fill="#fff" d="M100-194c62-1 85 37 85 99 1 63-27 99-86 99S16-35 15-95c0-66 28-99 85-99zM99-20c44 1 53-31 53-75 0-43-8-75-51-75s-53 32-53 75 10 74 51 75"/>
      <path id="aY" fill="#fff" d="M126-127c33 6 58 20 58 59 0 88-139 92-164 29-3-8-5-16-6-25l32-3c6 27 21 44 54 44 32 0 52-15 52-46 0-38-36-46-79-43v-28c39 1 72-4 72-42 0-27-17-43-46-43-28 0-47 15-49 41l-32-3c6-42 35-63 81-64 48-1 79 21 79 65 0 36-21 52-52 59"/>
      <path id="aZ" fill="#fff" d="M-5 72V49h209v23H-5"/>
      <path id="ba" fill="#fff" d="M115-194c53 0 69 39 70 98 0 66-23 100-70 100C84 3 66-7 56-30L54 0H23l1-261h32v101c10-23 28-34 59-34zm-8 174c40 0 45-34 45-75 0-40-5-75-45-74-42 0-51 32-51 76 0 43 10 73 51 73"/>
      <path id="bb" fill="#fff" d="M96-169c-40 0-48 33-48 73s9 75 48 75c24 0 41-14 43-38l32 2c-6 37-31 61-74 61-59 0-76-41-82-99-10-93 101-131 147-64 4 7 5 14 7 22l-32 3c-4-21-16-35-41-35"/>
      <path id="bc" fill="#fff" d="M143 0 79-87 56-68V0H24v-261h32v163l83-92h37l-77 82L181 0h-38"/>
      <path id="bd" fill="#282c33" d="m0 4 72-265h28L28 4H0"/>
      <path id="be" fill="#282c33" d="M141-36C126-15 110 5 73 4 37 3 15-17 15-53c-1-64 63-63 125-63 3-35-9-54-41-54-24 1-41 7-42 31l-33-3c5-37 33-52 76-52 45 0 72 20 72 64v82c-1 20 7 32 28 27v20c-31 9-61-2-59-35zM48-53c0 20 12 33 32 33 41-3 63-29 60-74-43 2-92-5-92 41"/>
      <path id="bf" fill="#282c33" d="M85-194c31 0 48 13 60 33l-1-100h32l1 261h-30c-2-10 0-23-3-31C134-8 116 4 85 4 32 4 16-35 15-94c0-66 23-100 70-100zm9 24c-40 0-46 34-46 75 0 40 6 74 45 74 42 0 51-32 51-76 0-42-9-74-50-73"/>
      <path id="bg" fill="#282c33" d="M210-169c-67 3-38 105-44 169h-31v-121c0-29-5-50-35-48C34-165 62-65 56 0H25l-1-190h30c1 10-1 24 2 32 10-44 99-50 107 0 11-21 27-35 58-36 85-2 47 119 55 194h-31v-121c0-29-5-49-35-48"/>
      <path id="bh" fill="#282c33" d="M24-231v-30h32v30H24zM24 0v-190h32V0H24"/>
      <path id="bi" fill="#282c33" d="M117-194c89-4 53 116 60 194h-32v-121c0-31-8-49-39-48C34-167 62-67 57 0H25l-1-190h30c1 10-1 24 2 32 11-22 29-35 61-36"/>
      <path id="bj" fill="#333" d="M10-190h156v33h-53V0H63v-157H10v-33"/>
      <path id="bk" fill="#333" d="M185-48a80 80 0 0 1-82 52C43 2 14-33 14-96s30-98 90-98c62 0 83 45 84 108H66c0 31 8 55 39 56 18 0 30-7 34-22zm-45-69c5-46-57-63-70-21-2 6-4 13-4 21h74"/>
      <path id="bl" fill="#333" d="M25-190h50v81c22-2 24-18 33-36l22-45h49c-19 30-32 64-55 90L180 0h-50L89-81c-3 2-9 2-14 2V0H25v-190"/>
      <path id="bm" fill="#333" d="M123 10C108 53 80 86 19 72V37c35 8 53-11 59-39L3-190h52l48 148c12-52 28-100 44-148h51"/>
      <path id="bn" fill="#333" d="M25 0v-190h46v157h56v-157h46v157h56v-157h46v157h25V72h-43V0H25"/>
      <path id="bo" fill="#333" d="M71-190 68-54l78-136h50V0h-45l3-136L78 0H25v-190h46"/>
      <path id="bp" fill="#333" d="M184-268c7 76-131 80-142 15l-1-15h39c1 22 10 35 32 35s31-13 32-35h40zM71-190 68-54l78-136h50V0h-45l3-136L78 0H25v-190h46"/>
      <path id="bq" fill="#333" d="M114-157C55-157 80-60 75 0H25v-261h50l-1 109c12-26 28-41 61-42 86-1 58 113 63 194h-50c-7-57 23-157-34-157"/>
      <path id="br" fill="#333" d="M185-48a80 80 0 0 1-82 52C43 2 14-33 14-96s30-98 90-98c62 0 83 45 84 108H66c0 31 8 55 39 56 18 0 30-7 34-22zm-45-69c5-46-57-63-70-21-2 6-4 13-4 21h74"/>
      <path id="bs" fill="#333" d="M133-34C117-15 103 5 69 4 32 3 11-16 11-54c-1-60 55-63 116-61 1-26-3-47-28-47-18 1-26 9-28 27l-52-2c7-38 36-58 82-57s74 22 75 68l1 82c-1 14 12 18 25 15v27c-30 8-71 5-69-32zm-48 3c29 0 43-24 42-57-32 0-66-3-65 30 0 17 8 27 23 27"/>
      <path id="bt" fill="#333" d="M115-3C79 11 28 4 28-45v-112H4v-33h27l15-45h31v45h36v33H77v99c-1 23 16 31 38 25v30"/>
      <path id="bu" fill="#282c33" d="M115-194c55 1 70 41 70 98S169 2 115 4C84 4 66-9 55-30l1 105H24l-1-265h31l2 30c10-21 28-34 59-34zm-8 174c40 0 45-34 45-75s-6-73-45-74c-42 0-51 32-51 76 0 43 10 73 51 73"/>
      <path id="bv" fill="#282c33" d="M100-194c62-1 85 37 85 99 1 63-27 99-86 99S16-35 15-95c0-66 28-99 85-99zM99-20c44 1 53-31 53-75 0-43-8-75-51-75s-53 32-53 75 10 74 51 75"/>
      <path id="bw" fill="#282c33" d="M126-127c33 6 58 20 58 59 0 88-139 92-164 29-3-8-5-16-6-25l32-3c6 27 21 44 54 44 32 0 52-15 52-46 0-38-36-46-79-43v-28c39 1 72-4 72-42 0-27-17-43-46-43-28 0-47 15-49 41l-32-3c6-42 35-63 81-64 48-1 79 21 79 65 0 36-21 52-52 59"/>
      <path id="bx" fill="#282c33" d="M-5 72V49h209v23H-5"/>
      <path id="by" fill="#282c33" d="M177-190C167-65 218 103 67 71c-23-6-38-20-44-43l32-5c15 47 100 32 89-28v-30A63 63 0 0 1 83 1C29 1 15-40 15-95c0-56 16-97 71-98 29-1 48 16 59 35 1-10 0-23 2-32h30zM94-22c36 0 50-32 50-73 0-42-14-75-50-75-39 0-46 34-46 75s6 73 46 73"/>
      <path id="bz" fill="#282c33" d="M100-194c63 0 86 42 84 106H49c0 40 14 67 53 68 26 1 43-12 49-29l28 8c-11 28-37 45-77 45C44 4 14-33 15-96c1-61 26-98 85-98zm52 81c6-60-76-77-97-28-3 7-6 17-6 28h103"/>
      <path id="bA" fill="#282c33" d="M59-47c-2 24 18 29 38 22v24C64 9 27 4 27-40v-127H5v-23h24l9-43h21v43h35v23H59v120"/>
      <path id="bB" fill="#282c33" d="M33 0v-38h34V0H33"/>
      <path id="bC" fill="#282c33" d="M141 0 90-78 38 0H4l68-98-65-92h35l48 74 47-74h35l-64 92 68 98h-35"/>
      <path id="bD" fill="#333" d="M190-63c-7 42-38 67-86 67-59 0-84-38-90-98-12-110 154-137 174-36l-49 2c-2-19-15-32-35-32-30 0-35 28-38 64-6 74 65 87 74 30"/>
      <path id="bE" fill="#333" d="M110-194c64 0 96 36 96 99 0 64-35 99-97 99-61 0-95-36-95-99 0-62 34-99 96-99zm-1 164c35 0 45-28 45-65 0-40-10-65-43-65-34 0-45 26-45 65 0 36 10 65 43 65"/>
      <path id="bF" fill="#333" d="M133-34C117-15 103 5 69 4 32 3 11-16 11-54c-1-60 55-63 116-61 1-26-3-47-28-47-18 1-26 9-28 27l-52-2c7-38 36-58 82-57s74 22 75 68l1 82c-1 14 12 18 25 15v27c-30 8-71 5-69-32zm-48 3c29 0 43-24 42-57-32 0-66-3-65 30 0 17 8 27 23 27"/>
      <path id="bG" fill="#333" d="M207-55C206 19 99-3 25 0v-190c69 5 172-21 177 47 2 30-24 34-43 44 27 3 48 13 48 44zm-50-2c0-36-48-24-82-26v52c34-2 82 10 82-26zm-7-80c0-31-45-20-75-22v45c31-3 75 10 75-23"/>
      <path id="bH" fill="#333" d="M62-158H24l-5-90h48"/>
      <path id="bI" fill="#282c33" d="M143 4C61 4 22-44 18-125c-5-107 100-154 193-111 17 8 29 25 37 43l-32 9c-13-25-37-40-76-40-61 0-88 39-88 99 0 61 29 100 91 101 35 0 62-11 79-27v-45h-74v-28h105v86C228-13 192 4 143 4"/>
      <path id="bJ" fill="#282c33" d="M24 0v-261h32V0H24"/>
      <path id="bK" fill="#282c33" d="M185-189c-5-48-123-54-124 2 14 75 158 14 163 119 3 78-121 87-175 55a71 71 0 0 1-33-46l33-7c5 56 141 63 141-1 0-78-155-14-162-118-5-82 145-84 179-34 5 7 8 16 11 25"/>
      <path id="bL" fill="#282c33" d="M114-163C36-179 61-72 57 0H25l-1-190h30c1 12-1 29 2 39 6-27 23-49 58-41v29"/>
      <path id="bM" fill="#282c33" d="M135-143c-3-34-86-38-87 0 15 53 115 12 119 90S17 21 10-45l28-5c4 36 97 45 98 0-10-56-113-15-118-90-4-57 82-63 122-42 12 7 21 19 24 35"/>
      <path id="bN" fill="#282c33" d="M106-169C34-169 62-67 57 0H25v-261h32l-1 103c12-21 28-36 61-36 89 0 53 116 60 194h-32v-121c2-32-8-49-39-48"/>
      <path id="bO" fill="#333" d="M24-248c93 1 206-16 204 79-1 75-69 88-152 82V0H24v-248zm52 121c47 0 100 7 100-41 0-47-54-39-100-39v80"/>
      <path id="bP" fill="#333" d="M192-190V0h-49v-157H75V0H25v-190h167"/>
      <path id="bQ" fill="#333" d="M75-190v75h68v-75h49V0h-49v-81H75V0H25v-190h50"/>
      <path id="bR" fill="#282c33" d="m158-156-14 65h45v19h-49L124 0h-19l15-72H56L41 0H22l15-72H2v-19h39l14-65H11v-19h48l15-71h20l-16 71h64l16-71h19l-16 71h37v19h-40zm-83 0L61-91h63l14-65H75"/>
      <path id="bS" fill="#282c33" d="M115-194c53 0 69 39 70 98 0 66-23 100-70 100C84 3 66-7 56-30L54 0H23l1-261h32v101c10-23 28-34 59-34zm-8 174c40 0 45-34 45-75 0-40-5-75-45-74-42 0-51 32-51 76 0 43 10 73 51 73"/>
      <path id="bT" fill="#282c33" d="M143 0 79-87 56-68V0H24v-261h32v163l83-92h37l-77 82L181 0h-38"/>
      <path id="bU" fill="#282c33" d="M185 0v-205H76V0H24v-248h211V0h-50"/>
      <path id="bV" fill="#282c33" d="M110-194c64 0 96 36 96 99 0 64-35 99-97 99-61 0-95-36-95-99 0-62 34-99 96-99zm-1 164c35 0 45-28 45-65 0-40-10-65-43-65-34 0-45 26-45 65 0 36 10 65 43 65"/>
      <path id="bW" fill="#282c33" d="M147-157h-42c-8 43-13 90-29 124h71v-124zM24-33c25-41 30-96 40-157h132v157h26V72h-43V0H46v72H2V-33h22"/>
      <path id="bX" fill="#282c33" d="M135-194c53 0 70 44 70 98 0 56-19 98-73 100-31 1-45-17-59-34 3 33 2 69 2 105H25l-1-265h48c2 10 0 23 3 31 11-24 29-35 60-35zM114-30c33 0 39-31 40-66 0-38-9-64-40-64-56 0-55 130 0 130"/>
      <path id="bY" fill="#282c33" d="M111-30c34 0 45-22 45-58s-9-59-42-59c-34 0-45 23-45 59 0 35 10 58 42 58zm-65-95c11-34 33-56 77-56 59 0 85 31 85 92 1 63-35 89-97 93C-12 13-8-201 74-238c33-15 81-20 124-26v41c-70 13-161 1-152 98"/>
      <path id="bZ" fill="#282c33" d="M75-190v75h68v-75h49V0h-49v-81H75V0H25v-190h50"/>
      <path id="ca" fill="#282c33" d="M185-48a80 80 0 0 1-82 52C43 2 14-33 14-96s30-98 90-98c62 0 83 45 84 108H66c0 31 8 55 39 56 18 0 30-7 34-22zm-45-69c5-46-57-63-70-21-2 6-4 13-4 21h74"/>
      <path id="cb" fill="#282c33" d="M132-113c10-53-68-63-72-15l-49-2c7-41 36-64 83-64 61 0 85 38 91 100C195 17 26 39 9-63l50-3c-2 43 65 48 70 8 1-6 3-14 3-22H78v-33h54"/>
      <path id="cc" fill="#282c33" d="M10-190h156v33h-53V0H63v-157H10v-33"/>
      <path id="cd" fill="#282c33" d="M153 0h-38L66-156 68 0H25v-190h66c14 50 33 95 43 149 9-54 29-100 43-149h64V0h-43l3-156"/>
      <path id="ce" fill="#282c33" d="M274 0H25v-190h46v157h56v-157h46v157h55v-157h46V0"/>
      <path id="cf" fill="#282c33" d="M133-34C117-15 103 5 69 4 32 3 11-16 11-54c-1-60 55-63 116-61 1-26-3-47-28-47-18 1-26 9-28 27l-52-2c7-38 36-58 82-57s74 22 75 68l1 82c-1 14 12 18 25 15v27c-30 8-71 5-69-32zm-48 3c29 0 43-24 42-57-32 0-66-3-65 30 0 17 8 27 23 27"/>
      <path id="cg" fill="#282c33" d="M154 0v-157H99C89-107 89-44 65-9 54 6 26 5 4 1v-33c46 5 36-55 46-98 6-25 3-25 8-60h146V0h-50"/>
      <path id="ch" fill="#282c33" d="m11 0 48-248h30L47-37l172-211h39L210 0h-30l42-209L52 0H11"/>
      <path id="ci" fill="#282c33" d="M44-68c0 29 11 47 38 47 30 0 42-19 51-41l28 9C148-21 126 4 82 4 31 4 10-29 12-85c3-77 74-140 146-93 12 8 15 23 18 40l-31 5c-1-22-13-36-36-36-52 0-65 49-65 101"/>
      <path id="cj" fill="#282c33" d="M191-190 154 0h-31l32-167H70L38 0H6l37-190h148"/>
      <path id="ck" fill="#282c33" d="M30-147c31-64 166-65 159 27C183-49 158 1 86 4 9 8 1-88 30-147zM88-20c53 0 68-48 68-100 0-31-11-51-44-50-52 1-68 46-68 97 0 32 13 53 44 53"/>
      <path id="cl" fill="#282c33" d="M-12-22c37 7 42-31 52-61l37-107h119L159 0h-32l32-167h-58C80-114 67-49 35-9 25 4 1 8-17 0"/>
      <path id="cm" fill="#282c33" d="M59-110c54-1 108-1 109 51C169 15 70 9 7-4l36-186h32zm76 54c0-36-44-31-81-31L42-23c39 4 93 9 93-33"/>
      <path id="cn" fill="#282c33" d="M145-55C149 17 8 26-2-41l29-8c4 39 86 41 84-6-1-27-25-33-53-33l5-24c31 0 62-3 62-34 0-36-68-28-72 1l-29-3c6-58 134-65 134 0 0 32-26 44-53 50 25 2 39 19 40 43"/>
      <path id="co" fill="#282c33" d="M198-190 69 30C53 58 25 83-20 72c4-11-1-27 19-22 33-1 43-29 59-52L20-190h32L79-34l84-156h35"/>
      <path id="cp" fill="#282c33" d="M191-260c-7 48-95 68-125 25-4-5-7-12-10-19l26-10c8 17 18 33 43 32 26-1 40-15 48-34zM67 3c-93-2-31-127-26-193h32L48-50c-3 39 53 32 70 12 30-34 30-101 43-152h32L157 0h-30c1-10 6-24 4-33-14 20-29 37-64 36"/>
      <path id="cq" fill="#282c33" d="M248-111c6-24 9-61-24-58-72 9-57 108-77 169h-31l26-142c3-37-50-30-64-10C52-115 50-51 37 0H6l36-190h30c-1 10-6 24-4 32 13-43 101-52 105 5 13-22 29-41 61-41 90 0 28 129 23 194h-31"/>
      <path id="cr" fill="#282c33" d="M111-194c62-3 86 47 72 106H45c-7 38 6 69 45 68 27-1 43-14 53-32l24 11A84 84 0 0 1 87 4C38 3 12-23 12-71c0-70 32-119 99-123zm44 81c14-66-71-72-95-28-4 8-8 17-11 28h106"/>
      <path id="cs" fill="#282c33" d="m75-190-16 80h85l15-80h32L154 0h-31l16-87H54L38 0H6l37-190h32"/>
      <path id="ct" fill="#282c33" d="M165-48c-4 18 1 34 23 27l-3 20c-29 8-62 0-52-35h-2C116-14 99 4 63 4 30 4 8-16 8-49c0-68 71-67 138-67 10-26 0-56-31-54-26 1-42 9-47 31l-32-5c8-67 160-71 144 15l-15 81zM42-50c3 52 80 24 89-6 7-12 7-24 11-38-47 1-103-4-100 44"/>
      <path id="cu" fill="#282c33" d="M51-79c-7 26-10 62 24 58 71-8 56-108 76-169h31L156-48c-2 37 49 30 64 10 27-37 28-101 41-152h31L256 0h-30l5-33c-13 19-25 36-57 36-29 0-45-14-48-40C112-17 98 1 64 3 20 5 11-35 19-75l22-115h31"/>
      <path id="cv" fill="#282c33" d="M43-190h32l-17 83c31-2 40-21 56-41l34-42h34l-65 76-12 11L146 0h-32L80-88c-8 2-15 5-26 4L38 0H6"/>
      <path id="cw" fill="#282c33" d="M67-162c32-53 139-36 121 50C175-51 163 2 97 4 68 4 52-11 42-31 38 6 28 39 22 75H-9l50-265h29c-1 10 0 20-3 28zm89 36c0-26-10-43-35-43-54 0-67 50-69 103-1 29 14 45 42 46 53 0 62-58 62-106"/>
      <path id="cx" fill="#282c33" d="M188-194c47 0 71 26 71 74 0 69-27 124-96 124-50 0-75-37-69-91H54L38 0H6l37-190h32l-16 80h38c11-48 35-84 91-84zM166-20c50 0 57-50 60-100 2-31-9-51-39-50-48 2-60 48-60 97 0 31 9 53 39 53"/>
      <path id="cy" fill="#282c33" d="M188-155C184-77 168 4 86 4 35 4 7-29 12-84c5-54 32-96 89-96 26 0 46 10 57 26 8-58-28-99-83-80l-8-21c71-22 125 22 121 100zM45-81c-13 59 60 82 88 39 21-32 36-117-27-115-45 2-52 36-61 76"/>
      <path id="cz" fill="#282c33" d="M67 3c-93-2-31-127-26-193h32L48-50c-3 39 53 32 70 12 30-34 30-101 43-152h32L157 0h-30c1-10 6-24 4-33-14 20-29 37-64 36"/>
      <path id="cA" fill="#282c33" d="M129-128c22-16 2-41-27-41-26 0-40 8-47 26l-26-8c8-55 142-64 140 5-2 65-92 46-125 84-13 24 8 42 36 41 26-1 44-8 51-28l25 10C147 18 6 23 8-47c1-64 83-53 121-81"/>
      <path id="cB" fill="#282c33" d="M240-190 203 0h-30l34-168L118 0H92L68-167 37 0H6l37-190h46l19 166c25-58 56-111 84-166h48"/>
      <path id="cC" fill="#282c33" d="M58-38C53-5 46 26 28 46H7C19 32 27 18 32 0H17l7-38h34"/>
      <path id="cD" fill="#282c33" d="M127-81C87-53 5-64 27-131l11-59h32l-14 77c0 34 50 20 74 14l18-91h31L143 0h-32"/>
      <path id="cE" fill="#282c33" d="M158-110c0-29-13-48-42-47-49 1-68 36-68 84 0 31 13 53 45 53 50-1 65-41 65-90zM49-134c14-26 36-46 74-47 43-1 69 26 68 69C189-44 161 3 92 4-17 7 14-175 64-220c33-30 95-36 149-44l-5 28c-62 12-136 8-150 69l-9 33"/>
      <path id="cF" fill="#282c33" d="m189 0 37-190h32L221 0h-32zM59-110c54-1 108-1 109 51C169 15 70 9 7-4l36-186h32zm76 54c0-36-44-31-81-31L42-23c39 4 93 9 93-33"/>
      <path id="cG" fill="#282c33" d="m44-154 7-36h35l-8 36H44zM14 0l7-36h35L49 0H14"/>
      <path id="db" fill="#282c33" d="M65-168c29 0 50 18 50 48S94-70 65-70c-30 0-48-21-48-50s19-48 48-48"/>
      <path id="cH" fill="#282c33" d="M59-175c30-27 118-26 118 27 0 33-26 40-48 50 22 4 39 15 39 41C168 16 69 8 7-4c15-59 13-137 52-171zm76 119c0-34-43-32-81-31L42-23c39 4 93 9 93-33zm-41-54c49 12 71-58 17-58-36 0-47 25-52 58h35"/>
      <path id="cI" fill="#282c33" d="M58-36C53-4 47 27 28 46H7C19 32 27 18 32 0H17l7-36h34zM47-154l7-36h34l-7 36H47"/>
      <path id="cJ" fill="#282c33" d="M25-132c0-73 90-56 160-58L148 0h-31l15-81H91L28 0H-8l67-83c-18-7-34-23-34-49zm85-36c-53-12-72 64-20 66h46l13-66h-39"/>
      <path id="cK" fill="#282c33" d="M107-85c-6 0-13-2-17-4L22 0h-35l83-105c-16-22-29-58-42-85h31c14 27 20 64 43 82l9 1 16-83h32l-16 83c27-2 37-25 50-41l34-42h34l-65 76-12 11L225 0h-32l-33-89c-6 3-14 3-21 4L122 0H90"/>
      <path id="cL" fill="#282c33" d="M123-28C108-12 96 5 65 4 23 3 8-32 13-77c6-62 21-115 84-117 28-1 42 16 51 35l19-102h32l-19 99c22-47 115-41 109 31-6 70-17 132-84 135-28 1-42-16-51-35-4 37-14 70-20 106h-31zM45-64c0 25 7 43 31 43 51 0 62-53 62-103 0-27-11-46-38-46-49 0-55 60-55 106zm211-62c0-26-6-43-30-43-52 0-59 52-62 103-2 27 13 46 37 46 49 0 55-59 55-106"/>
      <path id="cM" fill="#282c33" d="M68 3c-93-2-32-129-26-193h31L48-50c-2 38 54 32 71 12 30-35 29-101 43-152h32L161-23h26l-19 95h-28l14-72h-26c-1-12 6-25 4-33-14 20-29 37-64 36"/>
      <path id="cN" fill="#282c33" d="m14 0 8-38h34L48 0H14"/>
      <path id="cO" fill="#282c33" d="M99-119c-9 3-21 5-32 6L45 0H11l48-248h34L72-139c41-1 55-33 74-55l47-54h36c-35 37-64 80-103 112L189 0h-37"/>
      <path id="cP" fill="#282c33" d="m9 0 6-27h63l36-188-63 39 6-31 66-41h29L110-27h60l-5 27H9"/>
      <path id="cQ" fill="#282c33" d="m179 0 23-115H67L45 0H11l48-248h34L72-143h135l21-105h32L212 0h-33"/>
      <path id="cR" fill="#282c33" d="M124 0 87-78 21 0h-35l86-98-46-92h33l34 74 61-74h37l-83 92 50 98h-34"/>
      <path id="cS" fill="#282c33" d="M123-251c66 0 92 69 53 113C138-94 73-75 39-27h128l-5 27H-2c17-92 123-93 159-163 14-28-1-64-36-62-29 2-46 17-54 41l-30-6c13-36 37-61 86-61"/>
      <path id="cT" fill="#282c33" d="M272-137c0 70-49 103-126 99l-8 40h-33l7-40c-57 1-91-27-91-81 0-68 48-103 126-98l6-32h33l-6 32c58-2 92 25 92 80zm-34 4c0-39-20-62-63-59L150-63c54 2 88-19 88-70zM55-122c0 38 20 62 62 59l26-129c-55-3-88 19-88 70"/>
      <path id="cU" fill="#282c33" d="M148-71c0-36-31-44-71-41l5-28c46 3 81-6 81-50 0-23-15-35-39-35-30 0-49 17-56 41l-32-3c12-39 42-63 90-64 43 0 69 19 71 60 1 43-30 58-65 66 27 5 49 22 49 53 0 85-133 99-164 35-4-7-7-15-9-22l29-9c8 25 25 45 58 45 34 1 53-17 53-48"/>
      <path id="cV" fill="#282c33" d="M90-248c-7 55-56 158 42 141l52-8 25-133h34L195 0h-34l18-89C120-73 21-68 38-152l19-96h33"/>
      <path id="cW" fill="#282c33" d="M149-56 138 0h-32l11-56H2l5-25 144-167h35L154-81h33l-5 25h-33zm-4-147L40-81h82"/>
      <path id="cX" fill="#282c33" d="M144-25 97-89l2-11 72-65h28l-1 6-72 66 47 64c-2 9-20 2-29 4zm-84 0L13-89l2-11 72-65h28l-1 6-72 66 47 64c-2 9-20 2-29 4"/>
      <path id="cY" fill="#282c33" d="M20-101c0-91 52-143 145-150 126-9 127 168 53 223-23 17-55 32-93 32C57 4 20-33 20-101zm216-33c5-57-18-91-73-90-77 1-110 51-110 125 0 49 23 75 73 75 72-1 104-45 110-110"/>
      <path id="cZ" fill="#282c33" d="M112-25H85l1-7 72-64c-15-24-34-43-46-69h28l47 65-3 11zm-83 0H1l1-7 72-64c-15-24-34-43-46-69h28l46 65-2 11"/>
      <path id="da" fill="#282c33" d="M240-28 220 72h-32l14-72H11l48-248h34L50-28h126l43-220h32L209-28h31"/>
      <g id="a">
        <use xlink:href="#aU" transform="matrix(0.0987654320987654,0,0,0.0987654320987654,0,0)"/>
        <use xlink:href="#aV" transform="matrix(0.0987654320987654,0,0,0.0987654320987654,7.8024691358024665,0)"/>
        <use xlink:href="#aT" transform="matrix(0.0987654320987654,0,0,0.0987654320987654,27.55555555555554,0)"/>
        <use xlink:href="#aW" transform="matrix(0.0987654320987654,0,0,0.0987654320987654,47.30864197530862,0)"/>
        <use xlink:href="#aX" transform="matrix(0.0987654320987654,0,0,0.0987654320987654,67.06172839506169,0)"/>
        <use xlink:href="#aY" transform="matrix(0.0987654320987654,0,0,0.0987654320987654,86.81481481481477,0)"/>
        <use xlink:href="#aZ" transform="matrix(0.0987654320987654,0,0,0.0987654320987654,106.56790123456784,0)"/>
        <use xlink:href="#ba" transform="matrix(0.0987654320987654,0,0,0.0987654320987654,126.32098765432092,0)"/>
        <use xlink:href="#aT" transform="matrix(0.0987654320987654,0,0,0.0987654320987654,146.074074074074,0)"/>
        <use xlink:href="#bb" transform="matrix(0.0987654320987654,0,0,0.0987654320987654,165.82716049382708,0)"/>
        <use xlink:href="#bc" transform="matrix(0.0987654320987654,0,0,0.0987654320987654,183.60493827160485,0)"/>
      </g>
      <g id="b">
        <use xlink:href="#bd" transform="matrix(0.0987654320987654,0,0,0.0987654320987654,0,0)"/>
        <use xlink:href="#be" transform="matrix(0.0987654320987654,0,0,0.0987654320987654,9.876543209876539,0)"/>
        <use xlink:href="#bf" transform="matrix(0.0987654320987654,0,0,0.0987654320987654,29.62962962962962,0)"/>
        <use xlink:href="#bg" transform="matrix(0.0987654320987654,0,0,0.0987654320987654,49.382716049382694,0)"/>
        <use xlink:href="#bh" transform="matrix(0.0987654320987654,0,0,0.0987654320987654,78.91358024691354,0)"/>
        <use xlink:href="#bi" transform="matrix(0.0987654320987654,0,0,0.0987654320987654,86.71604938271601,0)"/>
      </g>
      <g id="c">
        <use xlink:href="#bj" transform="matrix(0.08641975308641973,0,0,0.08641975308641973,0,0)"/>
        <use xlink:href="#bk" transform="matrix(0.08641975308641973,0,0,0.08641975308641973,15.209876543209873,0)"/>
        <use xlink:href="#bl" transform="matrix(0.08641975308641973,0,0,0.08641975308641973,32.49382716049382,0)"/>
        <use xlink:href="#bm" transform="matrix(0.08641975308641973,0,0,0.08641975308641973,48.04938271604937,0)"/>
        <use xlink:href="#bn" transform="matrix(0.08641975308641973,0,0,0.08641975308641973,65.33333333333331,0)"/>
        <use xlink:href="#bo" transform="matrix(0.08641975308641973,0,0,0.08641975308641973,91.5185185185185,0)"/>
        <use xlink:href="#bp" transform="matrix(0.08641975308641973,0,0,0.08641975308641973,110.61728395061724,0)"/>
      </g>
      <g id="d">
        <use xlink:href="#bq" transform="matrix(0.08641975308641973,0,0,0.08641975308641973,0,0)"/>
        <use xlink:href="#br" transform="matrix(0.08641975308641973,0,0,0.08641975308641973,18.92592592592592,0)"/>
        <use xlink:href="#bs" transform="matrix(0.08641975308641973,0,0,0.08641975308641973,36.209876543209866,0)"/>
        <use xlink:href="#bt" transform="matrix(0.08641975308641973,0,0,0.08641975308641973,53.49382716049381,0)"/>
      </g>
      <g id="e">
        <use xlink:href="#bh" transform="matrix(0.0987654320987654,0,0,0.0987654320987654,0,0)"/>
        <use xlink:href="#bu" transform="matrix(0.0987654320987654,0,0,0.0987654320987654,7.8024691358024665,0)"/>
        <use xlink:href="#be" transform="matrix(0.0987654320987654,0,0,0.0987654320987654,27.55555555555554,0)"/>
        <use xlink:href="#bf" transform="matrix(0.0987654320987654,0,0,0.0987654320987654,47.30864197530862,0)"/>
        <use xlink:href="#bv" transform="matrix(0.0987654320987654,0,0,0.0987654320987654,67.06172839506169,0)"/>
        <use xlink:href="#bw" transform="matrix(0.0987654320987654,0,0,0.0987654320987654,86.81481481481477,0)"/>
        <use xlink:href="#bx" transform="matrix(0.0987654320987654,0,0,0.0987654320987654,106.56790123456784,0)"/>
        <use xlink:href="#be" transform="matrix(0.0987654320987654,0,0,0.0987654320987654,126.32098765432092,0)"/>
        <use xlink:href="#by" transform="matrix(0.0987654320987654,0,0,0.0987654320987654,146.074074074074,0)"/>
        <use xlink:href="#bz" transform="matrix(0.0987654320987654,0,0,0.0987654320987654,165.82716049382708,0)"/>
        <use xlink:href="#bi" transform="matrix(0.0987654320987654,0,0,0.0987654320987654,185.58024691358017,0)"/>
        <use xlink:href="#bA" transform="matrix(0.0987654320987654,0,0,0.0987654320987654,205.33333333333326,0)"/>
        <use xlink:href="#bB" transform="matrix(0.0987654320987654,0,0,0.0987654320987654,215.20987654320982,0)"/>
        <use xlink:href="#bz" transform="matrix(0.0987654320987654,0,0,0.0987654320987654,225.0864197530863,0)"/>
        <use xlink:href="#bC" transform="matrix(0.0987654320987654,0,0,0.0987654320987654,244.83950617283944,0)"/>
        <use xlink:href="#bz" transform="matrix(0.0987654320987654,0,0,0.0987654320987654,262.6172839506172,0)"/>
      </g>
      <g id="f">
        <use xlink:href="#bD" transform="matrix(0.08641975308641973,0,0,0.08641975308641973,0,0)"/>
        <use xlink:href="#bE" transform="matrix(0.08641975308641973,0,0,0.08641975308641973,17.283950617283946,0)"/>
        <use xlink:href="#bD" transform="matrix(0.08641975308641973,0,0,0.08641975308641973,35.77777777777777,0)"/>
        <use xlink:href="#bj" transform="matrix(0.08641975308641973,0,0,0.08641975308641973,53.061728395061714,0)"/>
        <use xlink:href="#bF" transform="matrix(0.08641975308641973,0,0,0.08641975308641973,68.2716049382716,0)"/>
        <use xlink:href="#bG" transform="matrix(0.08641975308641973,0,0,0.08641975308641973,85.55555555555554,0)"/>
      </g>
      <g id="g">
        <use xlink:href="#bq" transform="matrix(0.08641975308641973,0,0,0.08641975308641973,0,0)"/>
        <use xlink:href="#br" transform="matrix(0.08641975308641973,0,0,0.08641975308641973,18.92592592592592,0)"/>
        <use xlink:href="#bs" transform="matrix(0.08641975308641973,0,0,0.08641975308641973,36.209876543209866,0)"/>
        <use xlink:href="#bt" transform="matrix(0.08641975308641973,0,0,0.08641975308641973,53.49382716049381,0)"/>
        <use xlink:href="#bH" transform="matrix(0.08641975308641973,0,0,0.08641975308641973,63.77777777777776,0)"/>
        <use xlink:href="#bF" transform="matrix(0.08641975308641973,0,0,0.08641975308641973,71.12345679012344,0)"/>
      </g>
      <g id="h">
        <use xlink:href="#bI" transform="matrix(0.0987654320987654,0,0,0.0987654320987654,0,0)"/>
        <use xlink:href="#bv" transform="matrix(0.0987654320987654,0,0,0.0987654320987654,27.654320987654312,0)"/>
        <use xlink:href="#bv" transform="matrix(0.0987654320987654,0,0,0.0987654320987654,47.40740740740739,0)"/>
        <use xlink:href="#by" transform="matrix(0.0987654320987654,0,0,0.0987654320987654,67.16049382716047,0)"/>
        <use xlink:href="#bJ" transform="matrix(0.0987654320987654,0,0,0.0987654320987654,86.91358024691354,0)"/>
        <use xlink:href="#bz" transform="matrix(0.0987654320987654,0,0,0.0987654320987654,94.71604938271601,0)"/>
      </g>
      <g id="i">
        <use xlink:href="#bK" transform="matrix(0.0987654320987654,0,0,0.0987654320987654,0,0)"/>
        <use xlink:href="#bu" transform="matrix(0.0987654320987654,0,0,0.0987654320987654,23.703703703703695,0)"/>
        <use xlink:href="#bL" transform="matrix(0.0987654320987654,0,0,0.0987654320987654,43.45679012345677,0)"/>
        <use xlink:href="#bz" transform="matrix(0.0987654320987654,0,0,0.0987654320987654,55.209876543209845,0)"/>
        <use xlink:href="#be" transform="matrix(0.0987654320987654,0,0,0.0987654320987654,74.96296296296293,0)"/>
        <use xlink:href="#bf" transform="matrix(0.0987654320987654,0,0,0.0987654320987654,94.71604938271601,0)"/>
        <use xlink:href="#bM" transform="matrix(0.0987654320987654,0,0,0.0987654320987654,114.46913580246907,0)"/>
        <use xlink:href="#bN" transform="matrix(0.0987654320987654,0,0,0.0987654320987654,132.24691358024685,0)"/>
        <use xlink:href="#bz" transform="matrix(0.0987654320987654,0,0,0.0987654320987654,151.99999999999994,0)"/>
        <use xlink:href="#bz" transform="matrix(0.0987654320987654,0,0,0.0987654320987654,171.75308641975303,0)"/>
        <use xlink:href="#bA" transform="matrix(0.0987654320987654,0,0,0.0987654320987654,191.50617283950612,0)"/>
      </g>
      <g id="j">
        <use xlink:href="#bO" transform="matrix(0.08641975308641973,0,0,0.08641975308641973,0,0)"/>
        <use xlink:href="#bF" transform="matrix(0.08641975308641973,0,0,0.08641975308641973,20.30864197530864,0)"/>
        <use xlink:href="#bD" transform="matrix(0.08641975308641973,0,0,0.08641975308641973,37.59259259259258,0)"/>
        <use xlink:href="#bP" transform="matrix(0.08641975308641973,0,0,0.08641975308641973,54.87654320987653,0)"/>
        <use xlink:href="#bo" transform="matrix(0.08641975308641973,0,0,0.08641975308641973,73.62962962962962,0)"/>
        <use xlink:href="#bD" transform="matrix(0.08641975308641973,0,0,0.08641975308641973,92.72839506172838,0)"/>
        <use xlink:href="#bF" transform="matrix(0.08641975308641973,0,0,0.08641975308641973,110.35802469135803,0)"/>
        <use xlink:href="#bQ" transform="matrix(0.08641975308641973,0,0,0.08641975308641973,127.64197530864196,0)"/>
        <use xlink:href="#bo" transform="matrix(0.08641975308641973,0,0,0.08641975308641973,146.39506172839504,0)"/>
        <use xlink:href="#bk" transform="matrix(0.08641975308641973,0,0,0.08641975308641973,165.4938271604938,0)"/>
      </g>
      <g id="k">
        <use xlink:href="#bR" transform="matrix(0.0987654320987654,0,0,0.0987654320987654,0,0)"/>
        <use xlink:href="#bd" transform="matrix(0.0987654320987654,0,0,0.0987654320987654,19.753086419753078,0)"/>
        <use xlink:href="#bN" transform="matrix(0.0987654320987654,0,0,0.0987654320987654,29.62962962962962,0)"/>
        <use xlink:href="#bz" transform="matrix(0.0987654320987654,0,0,0.0987654320987654,49.382716049382694,0)"/>
        <use xlink:href="#be" transform="matrix(0.0987654320987654,0,0,0.0987654320987654,69.13580246913577,0)"/>
        <use xlink:href="#bA" transform="matrix(0.0987654320987654,0,0,0.0987654320987654,88.88888888888884,0)"/>
      </g>
      <g id="l">
        <use xlink:href="#bg" transform="matrix(0.0987654320987654,0,0,0.0987654320987654,0,0)"/>
        <use xlink:href="#bv" transform="matrix(0.0987654320987654,0,0,0.0987654320987654,29.530864197530853,0)"/>
        <use xlink:href="#bS" transform="matrix(0.0987654320987654,0,0,0.0987654320987654,49.283950617283935,0)"/>
        <use xlink:href="#bh" transform="matrix(0.0987654320987654,0,0,0.0987654320987654,69.03703703703701,0)"/>
        <use xlink:href="#bJ" transform="matrix(0.0987654320987654,0,0,0.0987654320987654,76.83950617283948,0)"/>
        <use xlink:href="#bz" transform="matrix(0.0987654320987654,0,0,0.0987654320987654,84.64197530864195,0)"/>
      </g>
      <g id="m">
        <use xlink:href="#bA" transform="matrix(0.0987654320987654,0,0,0.0987654320987654,0,0)"/>
        <use xlink:href="#bz" transform="matrix(0.0987654320987654,0,0,0.0987654320987654,9.876543209876539,0)"/>
        <use xlink:href="#bL" transform="matrix(0.0987654320987654,0,0,0.0987654320987654,29.62962962962962,0)"/>
        <use xlink:href="#bg" transform="matrix(0.0987654320987654,0,0,0.0987654320987654,41.3827160493827,0)"/>
        <use xlink:href="#bh" transform="matrix(0.0987654320987654,0,0,0.0987654320987654,70.91358024691355,0)"/>
        <use xlink:href="#bi" transform="matrix(0.0987654320987654,0,0,0.0987654320987654,78.71604938271602,0)"/>
        <use xlink:href="#be" transform="matrix(0.0987654320987654,0,0,0.0987654320987654,98.4691358024691,0)"/>
        <use xlink:href="#bJ" transform="matrix(0.0987654320987654,0,0,0.0987654320987654,118.22222222222219,0)"/>
      </g>
      <g id="n">
        <use xlink:href="#bf" transform="matrix(0.0987654320987654,0,0,0.0987654320987654,0,0)"/>
        <use xlink:href="#bz" transform="matrix(0.0987654320987654,0,0,0.0987654320987654,19.753086419753078,0)"/>
        <use xlink:href="#bM" transform="matrix(0.0987654320987654,0,0,0.0987654320987654,39.506172839506156,0)"/>
        <use xlink:href="#bT" transform="matrix(0.0987654320987654,0,0,0.0987654320987654,57.28395061728393,0)"/>
        <use xlink:href="#bA" transform="matrix(0.0987654320987654,0,0,0.0987654320987654,75.06172839506169,0)"/>
        <use xlink:href="#bv" transform="matrix(0.0987654320987654,0,0,0.0987654320987654,84.93827160493824,0)"/>
        <use xlink:href="#bu" transform="matrix(0.0987654320987654,0,0,0.0987654320987654,104.6913580246913,0)"/>
      </g>
    </defs>
  </g>
</svg>